<svg width="180" height="38" viewBox="-0.07031254801142062 -3.9765845177036483 437.1523437997702 86.85939701770364" xmlns="http://www.w3.org/2000/svg"><g id="svgGroup" stroke-linecap="round" fill-rule="evenodd" font-size="9pt" stroke="#000" stroke-width="0.25mm" fill="#000" style="stroke:#000;stroke-width:0.25mm;fill:#000"><path d="M 263.281 61.23 L 258.496 79.102 A 1653.403 1653.403 0 0 0 255.438 79.053 Q 250.742 78.982 244.554 78.911 A 4535.879 4535.879 0 0 0 244.141 78.906 Q 235.547 78.809 226.563 78.809 A 1530.621 1530.621 0 0 0 213.379 78.864 A 1335.95 1335.95 0 0 0 209.18 78.906 A 3242.433 3242.433 0 0 0 205.225 78.955 Q 200.378 79.018 196.83 79.081 A 998.539 998.539 0 0 0 195.703 79.102 L 249.316 10.254 L 216.797 10.254 Q 212.793 10.254 210.352 10.889 A 12.784 12.784 0 0 0 208.388 11.564 Q 207.319 12.037 206.487 12.682 A 7.817 7.817 0 0 0 206.348 12.793 A 9.436 9.436 0 0 0 204.294 15.376 A 11.36 11.36 0 0 0 203.857 16.26 Q 202.93 18.359 202.051 21.289 L 199.219 21.289 L 202.051 6.152 A 351.542 351.542 0 0 0 208.667 6.396 A 481.062 481.062 0 0 0 216.016 6.543 A 1234.603 1234.603 0 0 0 231.641 6.641 Q 239.551 6.641 247.07 6.543 A 451.534 451.534 0 0 0 253.777 6.409 Q 256.931 6.321 259.749 6.19 A 268.578 268.578 0 0 0 260.547 6.152 L 207.129 75 L 236.23 75 Q 240.364 75 243.528 74.713 A 43.234 43.234 0 0 0 246.387 74.365 A 22.431 22.431 0 0 0 249.414 73.68 Q 251.014 73.193 252.319 72.484 A 12.658 12.658 0 0 0 253.027 72.07 A 13.061 13.061 0 0 0 257.373 67.871 Q 259.082 65.234 260.742 61.23 L 263.281 61.23 Z M 275.781 69.043 L 275.781 14.648 A 43.403 43.403 0 0 0 275.757 13.162 Q 275.708 11.738 275.559 10.736 A 12.143 12.143 0 0 0 275.537 10.596 Q 275.352 9.446 274.912 8.662 A 3.662 3.662 0 0 0 274.609 8.203 A 2.7 2.7 0 0 0 273.607 7.496 Q 273.164 7.309 272.607 7.227 Q 271.722 7.095 270.505 7.052 A 35.914 35.914 0 0 0 269.238 7.031 L 269.238 5.078 A 31.236 31.236 0 0 0 275.342 3.271 A 17.654 17.654 0 0 0 280.139 0.377 A 16.709 16.709 0 0 0 280.566 0 L 282.324 0 Q 282.031 2.637 281.934 5.615 A 198.07 198.07 0 0 0 281.863 8.268 Q 281.839 9.514 281.836 10.623 A 115.518 115.518 0 0 0 281.836 10.938 L 281.836 42.188 Q 283.301 40.527 285.205 38.672 Q 287.109 36.816 289.258 35.156 A 27.008 27.008 0 0 1 293.994 32.52 A 12.821 12.821 0 0 1 299.121 31.445 A 13.053 13.053 0 0 1 303.449 32.131 A 10.886 10.886 0 0 1 308.594 35.938 A 16.444 16.444 0 0 1 311.644 42.988 A 22.739 22.739 0 0 1 312.012 47.168 L 312.012 69.043 A 57.207 57.207 0 0 0 312.029 70.495 Q 312.062 71.793 312.158 72.754 A 5.997 5.997 0 0 0 312.343 73.768 Q 312.56 74.547 312.988 75.098 Q 313.672 75.977 315.137 76.318 A 10.486 10.486 0 0 0 316.157 76.499 Q 317.221 76.637 318.66 76.657 A 35.454 35.454 0 0 0 319.141 76.66 L 319.141 79.102 L 316.553 79.102 A 28.805 28.805 0 0 1 314.16 79.004 A 61.7 61.7 0 0 1 312.347 78.976 A 69.597 69.597 0 0 1 311.719 78.955 A 64.126 64.126 0 0 0 310.4 78.918 A 79.38 79.38 0 0 0 308.984 78.906 A 77.331 77.331 0 0 0 307.581 78.918 A 58.92 58.92 0 0 0 306.299 78.955 A 59.876 59.876 0 0 1 303.906 79.004 A 59.876 59.876 0 0 0 301.514 79.053 A 61.56 61.56 0 0 1 299.766 79.097 A 72.78 72.78 0 0 1 298.926 79.102 L 298.926 76.66 A 39.08 39.08 0 0 0 300.375 76.635 Q 301.583 76.59 302.49 76.465 A 5.009 5.009 0 0 0 303.426 76.249 Q 304.187 75.989 304.688 75.488 A 3.307 3.307 0 0 0 305.304 74.612 Q 305.604 74.009 305.762 73.193 Q 306.055 71.68 306.055 69.043 L 306.055 53.223 Q 306.055 48.438 305.518 45.361 A 17.26 17.26 0 0 0 305.018 43.246 Q 304.692 42.189 304.247 41.331 A 8.591 8.591 0 0 0 303.711 40.43 Q 302.539 38.574 300.537 37.842 Q 298.892 37.24 296.62 37.133 A 21.524 21.524 0 0 0 295.605 37.109 A 10.975 10.975 0 0 0 291.801 37.823 Q 289.978 38.494 288.086 39.795 A 29.112 29.112 0 0 0 284.57 42.615 A 22.341 22.341 0 0 0 281.836 45.703 L 281.836 69.043 A 27.013 27.013 0 0 0 281.903 71.025 Q 282.122 73.988 283.057 75.146 A 2.872 2.872 0 0 0 284.087 75.912 Q 285.669 76.66 288.965 76.66 L 288.965 79.102 L 286.328 79.102 Q 285.156 79.102 283.984 79.004 A 59.876 59.876 0 0 1 281.592 78.955 A 61.56 61.56 0 0 0 279.844 78.911 A 72.78 72.78 0 0 0 279.004 78.906 A 77.331 77.331 0 0 0 277.6 78.918 A 58.92 58.92 0 0 0 276.318 78.955 A 59.876 59.876 0 0 1 273.926 79.004 A 62.316 62.316 0 0 0 271.436 79.053 A 61.56 61.56 0 0 1 269.688 79.097 A 72.78 72.78 0 0 1 268.848 79.102 L 268.848 76.66 A 20.704 20.704 0 0 0 270.621 76.59 Q 273.52 76.34 274.512 75.195 A 3.61 3.61 0 0 0 275.122 74.126 Q 275.774 72.439 275.781 69.112 A 34.418 34.418 0 0 0 275.781 69.043 Z M 38.184 42.48 L 38.184 67.188 A 26.468 26.468 0 0 0 38.288 69.636 Q 38.63 73.298 40.088 74.756 A 4.836 4.836 0 0 0 41.649 75.758 Q 43.202 76.413 45.721 76.593 A 28.706 28.706 0 0 0 47.754 76.66 L 47.754 79.102 A 273.884 273.884 0 0 0 44.788 79.016 A 354.985 354.985 0 0 0 41.553 78.955 A 468.373 468.373 0 0 0 34.766 78.906 A 458.319 458.319 0 0 0 28.027 78.955 Q 25.174 78.997 22.898 79.075 A 174.633 174.633 0 0 0 22.168 79.102 L 22.168 76.66 A 26.873 26.873 0 0 0 24.652 76.554 Q 28.207 76.223 29.688 74.854 A 4.472 4.472 0 0 0 30.707 73.353 Q 31.373 71.845 31.564 69.352 A 28.436 28.436 0 0 0 31.641 67.187 L 31.641 44.043 L 11.035 15.039 Q 9.473 12.988 8.252 11.719 A 10.294 10.294 0 0 0 7.174 10.739 Q 6.476 10.193 5.762 9.863 A 7.878 7.878 0 0 0 3.125 8.984 A 18.359 18.359 0 0 0 1.757 8.844 Q 1.037 8.796 0.232 8.79 A 30.949 30.949 0 0 0 0 8.789 L 0 6.25 A 42.118 42.118 0 0 0 1.735 6.369 Q 3.284 6.445 5.176 6.445 L 11.426 6.445 A 207.98 207.98 0 0 0 17.822 6.348 A 889.567 889.567 0 0 0 20.748 6.253 Q 22.134 6.206 23.371 6.159 A 535.724 535.724 0 0 0 23.535 6.152 L 23.535 8.691 Q 19.336 8.691 18.066 10.107 A 1.664 1.664 0 0 0 17.647 11.154 Q 17.582 12.263 18.632 13.985 A 16.229 16.229 0 0 0 19.336 15.039 L 37.012 39.551 L 55.273 14.746 A 15.402 15.402 0 0 0 55.985 13.73 Q 57.546 11.282 56.689 10.059 Q 55.68 8.617 50.27 8.689 A 40.997 40.997 0 0 0 50.098 8.691 L 50.098 6.152 A 174.928 174.928 0 0 0 56.47 6.335 A 199.984 199.984 0 0 0 58.691 6.348 A 183.913 183.913 0 0 0 63.013 6.299 A 143.891 143.891 0 0 0 66.992 6.152 L 66.992 8.691 A 14.016 14.016 0 0 0 65.875 8.799 Q 65.352 8.873 64.906 8.984 A 6.485 6.485 0 0 0 64.258 9.18 A 7.048 7.048 0 0 0 62.584 10.067 A 8.232 8.232 0 0 0 62.207 10.352 Q 61.487 10.992 60.701 11.96 A 21.576 21.576 0 0 0 60.352 12.402 A 94.87 94.87 0 0 0 59.578 13.423 Q 59.238 13.877 58.87 14.379 A 171.416 171.416 0 0 0 58.105 15.43 L 38.184 42.48 Z M 418.262 79.98 L 418.262 71.289 Q 413.574 75.098 408.496 77.93 A 23.912 23.912 0 0 1 403.856 79.939 A 18.111 18.111 0 0 1 398.535 80.762 A 11.369 11.369 0 0 1 394.94 80.166 A 12.75 12.75 0 0 1 394.824 80.127 A 8.482 8.482 0 0 1 392.231 78.674 A 10.496 10.496 0 0 1 391.406 77.93 A 9.723 9.723 0 0 1 389.928 76.004 A 13.208 13.208 0 0 1 389.014 74.121 Q 388.249 72.189 388.115 69.528 A 23.175 23.175 0 0 1 388.086 68.359 L 388.086 41.406 A 13.556 13.556 0 0 0 388.011 39.927 Q 387.778 37.814 386.816 36.963 A 3.526 3.526 0 0 0 385.863 36.384 Q 384.855 35.952 383.218 35.759 A 21.479 21.479 0 0 0 381.836 35.645 L 381.836 33.789 A 38.367 38.367 0 0 0 384.57 33.691 A 299.756 299.756 0 0 1 385.986 33.594 A 365.839 365.839 0 0 1 387.5 33.496 A 124.923 124.923 0 0 0 390.309 33.288 A 137.132 137.132 0 0 0 390.723 33.252 A 460.882 460.882 0 0 0 392.48 33.093 A 632.91 632.91 0 0 0 394.434 32.91 A 45.398 45.398 0 0 0 394.291 34.731 Q 394.235 35.663 394.206 36.7 A 77.88 77.88 0 0 0 394.189 37.402 A 388.777 388.777 0 0 0 394.168 38.605 Q 394.141 40.308 394.141 41.406 L 394.141 63.086 Q 394.141 70.703 396.143 73.145 Q 397.86 75.239 401.34 75.537 A 14.093 14.093 0 0 0 402.539 75.586 A 16.418 16.418 0 0 0 406.409 75.098 Q 408.108 74.686 409.921 73.926 A 28.849 28.849 0 0 0 410.596 73.633 A 27.907 27.907 0 0 0 418.359 68.457 L 418.359 41.406 A 9.251 9.251 0 0 0 418.243 39.883 Q 417.896 37.805 416.504 36.963 A 7.15 7.15 0 0 0 415.021 36.3 Q 413.406 35.773 411.035 35.645 L 411.035 33.789 A 43.655 43.655 0 0 0 412.82 33.751 A 53.428 53.428 0 0 0 413.965 33.691 A 877.044 877.044 0 0 1 416.98 33.508 A 958.922 958.922 0 0 1 417.188 33.496 Q 418.848 33.398 420.703 33.252 A 225.097 225.097 0 0 0 422.607 33.093 A 262.091 262.091 0 0 0 424.609 32.91 A 45.398 45.398 0 0 0 424.467 34.731 Q 424.411 35.663 424.382 36.7 A 77.88 77.88 0 0 0 424.365 37.402 A 388.777 388.777 0 0 0 424.344 38.605 Q 424.316 40.308 424.316 41.406 L 424.316 71.777 Q 424.316 74.044 425.112 75 A 1.861 1.861 0 0 0 425.83 75.537 A 4.414 4.414 0 0 0 426.625 75.775 Q 428.109 76.087 430.819 75.903 A 37.379 37.379 0 0 0 431.152 75.879 L 431.152 77.734 A 44.222 44.222 0 0 0 430.358 77.901 Q 430.001 77.98 429.602 78.072 A 92.71 92.71 0 0 0 428.76 78.271 A 43.95 43.95 0 0 0 426.933 78.756 A 52.321 52.321 0 0 0 425.781 79.102 A 95.996 95.996 0 0 0 422.51 79.932 A 607.187 607.187 0 0 1 420.935 80.359 A 525.113 525.113 0 0 1 419.434 80.762 Q 419.012 80.902 418.743 80.841 A 0.559 0.559 0 0 1 418.555 80.762 A 0.564 0.564 0 0 1 418.354 80.516 Q 418.268 80.323 418.262 80.021 A 2.263 2.263 0 0 1 418.262 79.98 Z M 372.1 65.006 A 25.546 25.546 0 0 0 373.73 55.859 A 30.196 30.196 0 0 0 373.579 52.799 A 24.549 24.549 0 0 0 371.826 45.752 A 26.321 26.321 0 0 0 371.066 44.099 A 22.178 22.178 0 0 0 366.699 38.086 Q 363.477 34.863 359.033 33.154 Q 354.59 31.445 349.512 31.445 A 24.253 24.253 0 0 0 348.585 31.463 A 20.815 20.815 0 0 0 340.332 33.447 A 24.349 24.349 0 0 0 333.008 38.77 Q 329.98 42.188 328.271 46.729 A 27.081 27.081 0 0 0 326.563 56.348 Q 326.563 62.012 328.516 66.553 A 26.086 26.086 0 0 0 329.092 67.802 A 22.248 22.248 0 0 0 333.789 74.219 A 22.234 22.234 0 0 0 341.504 79.102 A 26.031 26.031 0 0 0 350.781 80.762 Q 355.469 80.762 359.619 78.809 A 23.099 23.099 0 0 0 366.895 73.437 A 23.729 23.729 0 0 0 368.29 71.814 A 25.955 25.955 0 0 0 371.875 65.576 A 24.536 24.536 0 0 0 372.1 65.006 Z M 82.715 42.48 L 82.715 70.117 A 20.18 20.18 0 0 0 82.78 71.809 Q 83.014 74.571 84.08 75.487 A 1.571 1.571 0 0 0 84.082 75.488 A 3.403 3.403 0 0 0 85.083 76.055 Q 86.658 76.66 89.746 76.66 L 89.746 79.102 L 87.207 79.102 Q 86.035 79.102 84.863 79.004 A 59.876 59.876 0 0 1 82.471 78.955 A 61.56 61.56 0 0 0 80.723 78.911 A 72.78 72.78 0 0 0 79.883 78.906 A 77.331 77.331 0 0 0 78.479 78.918 A 58.92 58.92 0 0 0 77.197 78.955 A 59.876 59.876 0 0 1 74.805 79.004 A 62.316 62.316 0 0 0 72.314 79.053 A 61.56 61.56 0 0 1 70.567 79.097 A 72.78 72.78 0 0 1 69.727 79.102 L 69.727 76.66 Q 74.023 76.66 75.391 75.488 Q 76.748 74.325 76.758 70.178 A 25.547 25.547 0 0 0 76.758 70.117 L 76.758 46.191 A 58.391 58.391 0 0 0 76.739 44.648 Q 76.697 43.066 76.563 41.992 A 8.555 8.555 0 0 0 76.387 41.02 Q 76.17 40.134 75.781 39.551 A 2.701 2.701 0 0 0 74.508 38.535 A 3.677 3.677 0 0 0 74.023 38.379 Q 72.852 38.086 70.801 38.086 L 70.801 36.035 A 31.1 31.1 0 0 0 74.41 35.259 A 25.448 25.448 0 0 0 76.514 34.57 A 14.573 14.573 0 0 0 80.421 32.332 A 17.267 17.267 0 0 0 81.348 31.543 L 83.105 31.543 A 56.037 56.037 0 0 0 82.835 34.972 A 66.659 66.659 0 0 0 82.764 37.158 Q 82.718 39.939 82.715 42.166 A 231.251 231.251 0 0 0 82.715 42.48 Z M 366.504 56.934 A 33.521 33.521 0 0 0 366.161 52.245 A 41.35 41.35 0 0 0 365.625 49.268 Q 364.746 45.215 362.793 41.895 Q 360.742 38.477 357.568 36.279 A 12.16 12.16 0 0 0 352.729 34.33 A 16.546 16.546 0 0 0 349.805 34.082 A 16.481 16.481 0 0 0 346.272 34.443 A 12.121 12.121 0 0 0 342.334 36.035 A 15.334 15.334 0 0 0 337.402 41.016 A 23.087 23.087 0 0 0 334.776 47.637 A 25.905 25.905 0 0 0 334.717 47.9 A 34.537 34.537 0 0 0 333.9 54.368 A 31.708 31.708 0 0 0 333.887 55.273 A 30.502 30.502 0 0 0 334.165 59.289 A 39.452 39.452 0 0 0 334.766 62.646 A 26.241 26.241 0 0 0 337.598 70.02 A 17.97 17.97 0 0 0 342.725 75.732 A 11.872 11.872 0 0 0 347.542 77.756 A 16.352 16.352 0 0 0 350.586 78.027 A 16.408 16.408 0 0 0 354.05 77.68 A 11.833 11.833 0 0 0 358.008 76.074 A 15.183 15.183 0 0 0 362.891 70.996 A 20.374 20.374 0 0 0 365.508 64.908 A 23.237 23.237 0 0 0 365.674 64.209 A 34.969 34.969 0 0 0 366.445 58.818 A 30.662 30.662 0 0 0 366.504 56.934 Z M 76.123 6.738 A 4.764 4.764 0 0 0 74.707 10.156 A 4.692 4.692 0 0 0 74.988 11.789 A 4.782 4.782 0 0 0 76.123 13.525 A 5.766 5.766 0 0 0 76.167 13.569 A 4.593 4.593 0 0 0 79.492 14.941 A 4.764 4.764 0 0 0 82.91 13.525 A 5.82 5.82 0 0 0 83 13.436 A 4.506 4.506 0 0 0 84.375 10.156 A 4.588 4.588 0 0 0 83.974 8.245 A 5.105 5.105 0 0 0 82.91 6.738 A 6.115 6.115 0 0 0 82.815 6.645 A 4.659 4.659 0 0 0 79.492 5.273 A 4.507 4.507 0 0 0 77.647 5.651 A 4.85 4.85 0 0 0 76.123 6.738 Z" vector-effect="non-scaling-stroke"/></g></svg>