<svg version="1.1" xmlns="http://www.w3.org/2000/svg" xmlns:xlink="http://www.w3.org/1999/xlink" x="0px" y="0px" viewBox="0 0 2304 483" enable-background="new 0 0 2304 483" xml:space="preserve">
    <g>
        <path fill="none" stroke="#c9c9c9" stroke-width="2" stroke-linecap="round" stroke-linejoin="round" stroke-miterlimit="10" d="M1064.1,26.2c-1.6,3.3-0.4,6.8-0.4,10.1c0,148.9,0,297.8,0,446.7" />
        <path fill="none" stroke="#c9c9c9" stroke-width="2" stroke-linecap="round" stroke-linejoin="round" stroke-miterlimit="10" d="M433.5,464.1c-7.9-1.5-15.9-2.6-23.9-3.3c-9.2-0.8-18.4-2.8-27.6-3.5c-9.4-0.6-18.7-2.1-28-3c-8-0.8-16-1.8-23.9-2.4c-8-0.7-15.9-1.5-23.9-2.1c-9.1-0.7-18.1-1.6-27.1-2.3c-6.9-0.5-13.8-0.8-20.7-1.4c-13.5-1.2-27-0.9-40.5-2.7c-0.5-0.1-0.9,0-1.4,0c-13.8-0.5-27.6-0.7-41.4-1.4c-12.6-0.7-25.2,0.2-37.7-0.5c-17.2-1-34.3,0.3-51.5,0.3c-9.2,0-18.4,0.3-27.6,0.9c-12.4,0.8-24.8,2.1-37.3,2.7c-5.2,0.3-10.4,1.2-15.6,1.8"
        />
        <path fill="none" stroke="#c9c9c9" stroke-width="2" stroke-linecap="round" stroke-linejoin="round" stroke-miterlimit="10" d="M1149.7,162.8c-0.2,1.8-0.4,3.7-0.4,5.5c0,104.9,0,209.8,0,314.6" />
        <path fill="none" stroke="#c9c9c9" stroke-width="2" stroke-linecap="round" stroke-linejoin="round" stroke-miterlimit="10" d="M1574.7,482.9c2.6-7.3,8-11.5,14.7-14.8c5.3-2.6,10.9-3.9,16.6-4.4c4.1-0.4,4.6-2.3,4.6-5.7c-0.1-25.1,0-50.3,0-75.4c0-52.6,0.1-105.2-0.1-157.8c0-8.6-1.5-16.8-9.6-22.1c-6.8-4.5-14.3-5.8-22.1-5.3c-1.8,0.1-3.7-0.1-5.5,0.3"
        />
        <path fill="none" stroke="#c9c9c9" stroke-width="2" stroke-linecap="round" stroke-linejoin="round" stroke-miterlimit="10" d="M971.2,197.7c1.5-2.1,1.9-4.4,1.9-6.9c0-35.6,0-71.1,0-106.7c0-8.1,0-16.3,0-24.4c0-3.4-0.5-6.7-0.1-10.1c0.7-6.4,0.3-6.8,6.1-8.2c7.4-1.8,15-3.1,22.5-4.7c10.9-2.3,21.8-4.5,32.7-6.9c7.2-1.6,14.4-3.7,21.6-4.9c6.9-1.2,13.4,1.4,19.8,3.6c6.4,2.2,12.7,4.5,19.3,6.2c4.1,1,7.9,3.5,12,4.9c3.3,1.2,3.3,4,3.3,6.9c0,37,0,73.9,0,110.9c0,108.6,0,217.1,0,325.7"
        />
        <path fill="none" stroke="#c9c9c9" stroke-width="2" stroke-linecap="round" stroke-linejoin="round" stroke-miterlimit="10" d="M2302.5,456.2c-8.3-1.7-16.5-3.7-24.9-5c-15.7-2.4-31.5-4.1-47.4-5.2c-34.5-2.4-69-3.2-103.5-2.5c-12.9,0.2-25.8,0.4-38.6,0.8c-20.4,0.7-40.8,1.6-61.2,2.8c-9.8,0.6-19.6,1.5-29.4,1.8c-1.2,0-2.5,0.6-3.7,0.9"
        />
        <path fill="none" stroke="#c9c9c9" stroke-width="2" stroke-linecap="round" stroke-linejoin="round" stroke-miterlimit="10" d="M1334.2,122.3c1.5,1.6,0.9,3.7,0.9,5.5c0,80,0,160.1,0,240.1c0,17.8,0,35.6,0,53.4c0,20.5,0,41.1,0,61.6" />
        <path fill="none" stroke="#c9c9c9" stroke-width="2" stroke-linecap="round" stroke-linejoin="round" stroke-miterlimit="10" d="M1247.7,265.3c-0.8,1.6-0.4,3.4-0.4,5.1c0,70.8,0,141.7,0,212.5" />
        <path fill="none" stroke="#c9c9c9" stroke-width="2" stroke-linecap="round" stroke-linejoin="round" stroke-miterlimit="10" d="M1275.3,121.4c-1.5,1.6-0.9,3.7-0.9,5.5c0,45.7,0,91.4,0,137.1c0,73,0,146,0,219" />
        <path fill="none" stroke="#c9c9c9" stroke-width="2" stroke-linecap="round" stroke-linejoin="round" stroke-miterlimit="10" d="M1111.1,194.1c8-1.4,16.1-2.3,23.9-4.3c9.5-2.3,18.9-2,28,0.8c5.5,1.7,11.3,1,16.7,3.3c2.9,1.2,3.6,2.5,3.6,5.3c-0.1,20.5,0,41.1,0,61.6c0,74.1,0,148.1,0,222.2"
        />
        <path fill="none" stroke="#c9c9c9" stroke-width="2" stroke-linecap="round" stroke-linejoin="round" stroke-miterlimit="10" d="M894.9,84.6c0,0.8-0.3,1.9,0,2.3c8.1,8.1,12.9,18.4,19.2,27.7c7.7,11.2,15,22.7,22.6,34c3.8,5.6,6.6,12,12.3,16.3c1.5,1.1,1.3,4.4,2.5,6.3c4.9,7.9,9,16.7,15.5,23.1c4.5,4.5,5.5,10.2,9.2,14.7c3.9,4.8,7,10.3,10.2,15.6c1.1,1.7,1.5,3.8,1.5,5.9c-0.1,55.4-0.1,110.7,0,166.1c0,2-0.1,3.9-1.4,5.5"
        />
        <path fill="none" stroke="#c9c9c9" stroke-width="2" stroke-linecap="round" stroke-linejoin="round" stroke-miterlimit="10" d="M1538.4,423.1c0-62.9,0-125.7,0-188.6c0-12.3,0.5-24.5-0.7-36.8c-0.7-7.1,10.1-15.5,17.7-15.2c8.6,0.4,16.2,6.3,17.2,14.8c0.3,2.8,0,6.1-0.2,9.2c-0.7,7.5,1.7,15.1-0.9,22.5c2.2,21.3,0.5,42.6,0.8,63.9c0.3,21.3,0.1,42.6,0.1,63.9s0,42.6,0,63.9c0,3.1,0.5,5.3,4.1,6.1c2.2,0.5,3.3,2.6,3.2,4.9c-0.3,11.5,0.6,23-0.5,34.5c-0.2,2.2,1,3.8,1.9,5.5"
        />
        <path fill="none" stroke="#c9c9c9" stroke-width="2" stroke-linecap="round" stroke-linejoin="round" stroke-miterlimit="10" d="M811.1,230.9c3.1,0.3,4.9,2.6,6.9,4.6c53.5,53.5,107,107,160.5,160.5c1.6,1.6,3.1,3.6,5.1,4.5c3.6,1.7,4.2,4.4,4.1,7.9c-0.1,24.8-0.1,49.7-0.1,74.5"
        />
        <path fill="none" stroke="#c9c9c9" stroke-width="2" stroke-linecap="round" stroke-linejoin="round" stroke-miterlimit="10" d="M1460.7,285.1c-3.5,0.4-6.1,2.7-8.7,4.7c-3,2.3-1.7,6.2-1.6,9.1c0.2,5.5-0.4,11-0.4,16.6c0.2,53.8,0.1,107.6,0.1,161.5c0,2-0.3,4-0.4,6"
        />
        <path fill="none" stroke="#c9c9c9" stroke-width="2" stroke-linecap="round" stroke-linejoin="round" stroke-miterlimit="10" d="M1448.7,309.5c-2.9-0.3-6.4-2.1-8.1,1.5c-1.1,2.2-1.6,5.4-0.9,7.7c1.1,3.2,0.2,6.2,0.2,9.3c0.1,51.7,0.1,103.3,0.1,155" />
        <path fill="none" stroke="#c9c9c9" stroke-width="2" stroke-linecap="round" stroke-linejoin="round" stroke-miterlimit="10" d="M1464.3,426.8c-2-2.6-2.4-5.5-2.3-8.7c0.1-40.8,0-81.6,0.1-122.4c0-5.7-1.3-11.3-0.2-17c0.4-2.3,0.6-4.2,2.8-5.5c5.4-3.2,10.7-6.5,16.1-9.6c1.9-1.1,4.2-1.4,6.6-0.6c-0.8,2.8-0.6,5.6-0.6,8.4c0,54,0,107.9,0,161.9c0,4.3,1.1,8.7-0.9,12.9"
        />
        <path fill="none" stroke="#c9c9c9" stroke-width="2" stroke-linecap="round" stroke-linejoin="round" stroke-miterlimit="10" d="M807.5,285.1c-1.5-1-3.1-0.4-4.6-0.4c-26.5,0-53.1,0-79.6-0.1c-2.8,0-5.5-0.4-8.3-0.4c-3.8,0-5.6,1.6-6,5.5c-1.1,11.2-0.1,22.4-0.5,33.6c-0.3,8.3-0.8,16.7-0.5,24.8c1.2,30.8,0,61.7,0.6,92.5c0,2.1,0.4,4.3,0.4,6.4c0,6-8.4,12.5-14.2,11c-2-0.5-3.1-2.3-4.1-3.7c-2.7-3.9-6.4-5.9-10.7-7.3c-7-2.4-13,0.3-18.8,3.7c-0.1,0.1,0,0.6,0,0.9"
        />
        <path fill="none" stroke="#c9c9c9" stroke-width="2" stroke-linecap="round" stroke-linejoin="round" stroke-miterlimit="10" d="M1314.6,158.6c0,0.5,0,2.1,0,5.5c0,20.9,0,41.7,0,62.6c0,3.7,0,6.8,0,6.9c0,0.1,0-2.4,0-6.9c0-20.5,0-41.1,0-61.6C1314.6,161.7,1314.6,159.5,1314.6,158.6"
        />
        <path fill="none" stroke="#c9c9c9" stroke-width="2" stroke-linecap="round" stroke-linejoin="round" stroke-miterlimit="10" d="M1314.6,471.4c0,3.5,0,4.8,0,4c0-0.7,0-3.2,0-6.3c0-20.5,0-41.1,0-61.6c0-4.5,0-6.2,0-6.4c0-0.2,0,1.7,0,6c0,20.1,0,40.2,0,60.3c0,1.2,0,2.5,0,3.7"
        />
        <path fill="none" stroke="#c9c9c9" stroke-width="2" stroke-linecap="round" stroke-linejoin="round" stroke-miterlimit="10" d="M1314.6,344.5c0,2.5,0,4.9,0,6c0,1.3,0-1.1,0-5c0-21.3,0-42.6,0-63.9c0-3.2,0-5.4,0-5.4c0,0,0,1.7,0,5.4c0,20.2,0,40.5,0,60.7c0,0.6,0,1.2,0,1.8"
        />
        <path fill="none" stroke="#c9c9c9" stroke-width="2" stroke-linecap="round" stroke-linejoin="round" stroke-miterlimit="10" d="M894.9,87.3c-2,0.8-3.1,2.4-4.2,4.1c-11.6,19.5-23.2,39-35,58.4c-11.7,19.4-23.6,38.6-35.4,58c-3.1,5-6.2,10.1-9.2,15.2c-0.7,1.2-1.3,2.7-1.4,4.1c-0.3,6.9-0.2,13.8-0.6,20.7c-0.7,12.4,1.4,24.9-1,37.3c-0.6,2.8,1.1,6.6,1.1,10.1c0,44.5,0.2,88.9-0.2,133.4c-0.1,7.2,0.6,14.4,0.2,21.6c-0.1,2.1-0.2,4.1-1.9,5.5"
        />
        <path fill="none" stroke="#c9c9c9" stroke-width="2" stroke-linecap="round" stroke-linejoin="round" stroke-miterlimit="10" d="M1487.8,262.6c1.9-0.1,3.5,0.4,5.1,1.8c4.2,3.6,6.9,9.1,12.8,10.6c1.5,4.9,6.1,7.5,8.7,11.5c0.7,1,0.5,2.7,0.5,4.1c0.2,44.3,0.3,88.6,0.5,132.9"
        />
        <path fill="none" stroke="#c9c9c9" stroke-width="2" stroke-linecap="round" stroke-linejoin="round" stroke-miterlimit="10" d="M1871,419c-1.4-0.5-2.9-0.7-4.1-1.4c-20.1-12.2-43.1-2.1-51.5,17.6c-0.5,1.2-1,2.3-2,3.3c-5.4-1-10.9-2.2-16.4-1.3c-7.7,1.2-14.7,4.3-20.3,10c-1.2,1.2-2.7,2.2-4.1,3.2"
        />
        <path fill="none" stroke="#c9c9c9" stroke-width="2" stroke-linecap="round" stroke-linejoin="round" stroke-miterlimit="10" d="M948.7,482.9c0-28.2,0-56.4,0-84.6c0-1.4-0.2-2.8-0.2-4.1c-0.1-2.8-1.8-3.8-4.4-3.7c-20.5,0.8-41.1,0.7-61.6,0.1c-2.5-0.1-4.9,0.3-5.2,4.1c-0.5,8.6-1.3,17.3-1.7,25.8c-0.3,7.3-0.4,14.7-0.6,22.1c-0.3,12.1-0.9,24.2-1.3,36.3c0,1.3,0.2,2.6-1.8,2.3"
        />
        <path fill="none" stroke="#c9c9c9" stroke-width="2" stroke-linecap="round" stroke-linejoin="round" stroke-miterlimit="10" d="M561.8,419.4c-1.5-2.3-3.1-4.6-4.6-6.9c-6.3-9.9-15.8-12.8-26.7-11.4c-9.3,1.2-16.1,6.6-19.9,15.5c-1.2,2.9-2.5,5.8-6.8,5.6c-12.4-0.4-19.9,6.4-24.4,17.4c-0.6,1.5-0.7,3.5-2.7,4.1"
        />
        <path fill="none" stroke="#c9c9c9" stroke-width="2" stroke-linecap="round" stroke-linejoin="round" stroke-miterlimit="10" d="M1955.2,443.8c-2.6-3.4-3.2-7.7-5.9-11.1c-5-6.6-11.1-10.5-19.4-10.5c-4,0-6.4-1.6-7.9-5.5c-5.2-14.1-22.1-19.5-35.9-13.4c-7.1,3.1-10.4,9.6-14.6,15.3c-0.7,0.9,0.2,3,0.3,4.5"
        />
        <path fill="none" stroke="#c9c9c9" stroke-width="2" stroke-linecap="round" stroke-linejoin="round" stroke-miterlimit="10" d="M707.2,348.1c-21.2,0-42.3,0-63.5,0c-9.9,0-19.4,2.1-29,4.2c-4.8,1-9.5,2.5-14.3,3.1c-4,0.5-5.2,2.2-5.1,6.1c0.2,14.6,0,29.1,0.1,43.7c0,2.4-0.2,4.7-1,6.9"
        />
        <path fill="none" stroke="#c9c9c9" stroke-width="2" stroke-linecap="round" stroke-linejoin="round" stroke-miterlimit="10" d="M1096.3,34.4c1.9-6.2,0.6-12.6,0.8-18.9c0.1-2-1.9-2.6-3.6-3.3c-7.9-3.3-15.6-6.9-23.5-10c-6.3-2.4-12.6-2.5-19.3-0.7c-11.6,3.1-23.6,5.1-35.4,7.5c-9.5,2-19,4.1-28.5,5.9c-2.7,0.5-3.7,1.5-3.7,4.2c0.1,6.6,0,13.2,0,19.8"
        />
        <path fill="none" stroke="#c9c9c9" stroke-width="2" stroke-linecap="round" stroke-linejoin="round" stroke-miterlimit="10" d="M1336.5,373.4c29.1,0,58.3,0,87.4,0" />
        <path fill="none" stroke="#c9c9c9" stroke-width="2" stroke-linecap="round" stroke-linejoin="round" stroke-miterlimit="10" d="M633.1,350c0,11.7,0,23.3,0,35c0,15.3,0,30.7,0,46c0,1.5-0.3,3.1,0.4,4.6" />
        <path fill="none" stroke="#c9c9c9" stroke-width="2" stroke-linecap="round" stroke-linejoin="round" stroke-miterlimit="10" d="M971.7,78.6c-5.2,0.4-10,2.7-15.2,3.4c-3.5,0.5-5.7,3.1-5.7,7.6c0.2,22.7,0.1,45.4,0.1,68.1c0,2.4,0.1,4.7-1.9,6.4" />
        <path fill="none" stroke="#c9c9c9" stroke-width="2" stroke-linecap="round" stroke-linejoin="round" stroke-miterlimit="10" d="M1292.2,187.6c0,0.1,0,3.5,0,6.9c0,20.2,0,40.5,0,60.7c0,1.7,0,3.6,0,5c0,1.8,0,3.2,0,2.6c0-0.5,0-1,0-4c0-1.4,0-2.8,0-4.1c0-18.7,0-37.4,0-56.1c0-3,0-6.5,0-9.2C1292.2,188.6,1292.2,188.2,1292.2,187.6"
        />
        <path fill="none" stroke="#c9c9c9" stroke-width="2" stroke-linecap="round" stroke-linejoin="round" stroke-miterlimit="10" d="M1427.5,317.3c-2.4,3.2-1.8,7-1.8,10.6c0,13.3,0.3,26.7-0.1,40c-0.4,12-0.3,23.9-0.4,35.9c-0.1,11.8,0,23.6,0,35.4c0,14.6,0,29.1,0,43.7"
        />
        <path fill="none" stroke="#c9c9c9" stroke-width="2" stroke-linecap="round" stroke-linejoin="round" stroke-miterlimit="10" d="M874.6,420.4c-6.3-1-12.6-0.2-18.9-0.5c-1.7-0.1-3.4-0.2-5.1-0.3c-2-0.1-4.4,0.4-4.6,3.5c-0.4,4.3-1.7,8.6-1.7,12.9c0.1,6-0.9,12-1.4,17.9c-0.3,3.4,0.4,7.3-1.5,10.6"
        />
        <path fill="none" stroke="#c9c9c9" stroke-width="2" stroke-linecap="round" stroke-linejoin="round" stroke-miterlimit="10" d="M807.5,435.1c-2-1.9-4.3-0.4-6.4-0.4c-11.2-0.3-22.4,0.5-33.6-0.5c-3.1-0.3-5.2,1.1-5.1,4.6c0.1,4.9,0.4,9.8,0.4,14.7c0.1,3.9-1.3,4.9-4.1,2.7c-6.1-4.7-12.9-5.9-20.3-4.6c-1.2,0.2-2.5,0.5-3.7-0.4c-6.4-5.2-13.5-5.9-21.2-3.3c-1,0.3-2.4,1.4-3.6,0.1"
        />
        <path fill="none" stroke="#c9c9c9" stroke-width="2" stroke-linecap="round" stroke-linejoin="round" stroke-miterlimit="10" d="M1292.1,482.9c0-15.5,0-31,0-46.5c0-5,0-7.1,0-5.6c0,1.2,0,4.2,0,6.5C1292.1,452.6,1292.1,467.8,1292.1,482.9" />
        <path fill="none" stroke="#c9c9c9" stroke-width="2" stroke-linecap="round" stroke-linejoin="round" stroke-miterlimit="10" d="M1697.6,451.9c-4.8-1.1-9.6-1.3-14.2,0.3c-2.6,0.8-5.1,1.8-6.9,4.1c-2.3,2.9-4.6,2.4-7.4,0.5c-5.8-4-12.5-5.8-19.3-5.9c-10.5-0.1-19.9,3.4-27.6,10.9c-3.7,3.6-7.3,3.9-12,0.9"
        />
        <path fill="none" stroke="#c9c9c9" stroke-width="2" stroke-linecap="round" stroke-linejoin="round" stroke-miterlimit="10" d="M1245.6,262.1c-0.5,1.8-2,0.7-3,0.9c-10.1,1.7-20.2,3.5-30.4,5.1c-9.2,1.5-18.4,2.8-27.6,4.2" />
        <path fill="none" stroke="#c9c9c9" stroke-width="2" stroke-linecap="round" stroke-linejoin="round" stroke-miterlimit="10" d="M1537,197.7c-7.4,0-14.3,1.2-20.8,5.4c-5.9,3.9-8.5,9.2-8.6,15.7c-0.3,16.7-0.1,33.4-0.1,50.1c0,2.1,0.1,4.2-1.4,6" />
        <path fill="none" stroke="#c9c9c9" stroke-width="2" stroke-linecap="round" stroke-linejoin="round" stroke-miterlimit="10" d="M1486.4,424.5c-5,0.8-10.1,0.4-15.2,0.5c-6.3,0.1-9.2,3-9.2,9.2c0,16.3,0,32.5,0,48.8" />
        <path fill="none" stroke="#c9c9c9" stroke-width="2" stroke-linecap="round" stroke-linejoin="round" stroke-miterlimit="10" d="M1698,453.5c2.8-4.8,12.2-8.7,17.9-7.1c5.1,1.4,9.9,3.3,12.9,8c3.2,5.2,11.3,5.2,14.8,0c4.2-6.4,10.9-8.4,17.9-8.1c4,0.2,8.5,1.2,11,5.3"
        />
        <path fill="none" stroke="#c9c9c9" stroke-width="2" stroke-linecap="round" stroke-linejoin="round" stroke-miterlimit="10" d="M478.1,448c0.1-3.8-2.7-4.1-5.5-5.2c-7.3-2.7-14.3-2.9-21.7,0c-7.6,3-12.3,8.6-15.1,15.8c-3.3,8.4-0.7,16.5,2.7,24.4" />
        <path fill="none" stroke="#c9c9c9" stroke-width="2" stroke-linecap="round" stroke-linejoin="round" stroke-miterlimit="10" d="M1175.5,191.8c0.9-5.8,0.3-11.7,0.5-17.5c0-2.6-0.3-4.3-3.6-5.2c-6-1.7-11.5-5.1-17.6-6.6c-6.1-1.5-12.6-1-18.8,0.3c-8.1,1.6-16.3,3.4-24.4,5"
        />
        <path fill="none" stroke="#c9c9c9" stroke-width="2" stroke-linecap="round" stroke-linejoin="round" stroke-miterlimit="10" d="M1574.7,427.3c-0.4,1.8-1.7,2.9-3.2,3.7c-12.6,6.6-25.6,12.5-38.6,18.3c-2.5,1.1-4.6,0-6.9,0.1c-10.9,0.2-21.8,0.1-32.7,0.1c-1.7,0-3.4-0.3-5.1-0.4"
        />
        <path fill="none" stroke="#c9c9c9" stroke-width="2" stroke-linecap="round" stroke-linejoin="round" stroke-miterlimit="10" d="M560.9,423.1c-0.2-1.5,0.1-2.9,1.4-3.6c6.7-3.8,13.7-7,21.6-7.3c15.1-0.6,26.6,8.6,32.6,19.7c1.1,2.1,2.1,4.3,3.2,6.6c4.8-0.8,9.8-2.9,14.2-2.2c7.6,1.3,15.3,3.2,21.2,8.9c1.9,1.8,4,3.4,6,5.1"
        />
        <path fill="none" stroke="#c9c9c9" stroke-width="2" stroke-linecap="round" stroke-linejoin="round" stroke-miterlimit="10" d="M863.6,482.7c-2.2,1-2.9-1.1-3.6-2.1c-4.4-7-11.7-10.5-18-15.2c-1.4-1-2.5,0.5-3.7,0c-6.3-2.3-12.9-1.6-19.3-0.8c-2.5,0.3-4.2-0.2-5.5-2c-6.3-9-16.2-10.6-25.8-11.7c-6.1-0.7-12.4,0.6-17.9,3.9c-2,1.2-4.2,1.6-6.5,1.4"
        />
        <path fill="none" stroke="#c9c9c9" stroke-width="2" stroke-linecap="round" stroke-linejoin="round" stroke-miterlimit="10" d="M1336.5,427.3c3.1,1.1,6.1-0.1,9.2,0c5.4,0.1,10.8-0.3,16.1,0.9c1.8,7.6,2.2,15.3,3.2,23c0.7,5.9,1.5,11.7,2.6,17.5c0.9,4.6,0.7,9.5,1,14.2"
        />
        <path fill="none" stroke="#c9c9c9" stroke-width="2" stroke-linecap="round" stroke-linejoin="round" stroke-miterlimit="10" d="M1992.9,482.9c5.7-9.4,5.3-19,1.4-29c-2.3-6-7.6-8.3-12.5-10.9c-8.9-4.7-17.9-2.1-26.6,1.3c-0.4,0.1-0.5,0.9-0.7,1.3" />
        <path fill="none" stroke="#c9c9c9" stroke-width="2" stroke-linecap="round" stroke-linejoin="round" stroke-miterlimit="10" d="M971.7,53.8c-3.5,0.8-7.1,1.5-10.6,2.3c-4.2,1-5.3,3-5.1,7.3c0.2,3.5,0.3,7.1,0,10.6c-0.2,2.6,0.2,4.8,1.5,6.9" />
        <path fill="none" stroke="#c9c9c9" stroke-width="2" stroke-linecap="round" stroke-linejoin="round" stroke-miterlimit="10" d="M1423.9,450.7c-5.2,0-10.4,0.1-15.6,0c-3.3-0.1-4.7,1.3-4.6,4.6c0.1,9.2,0,18.4,0,27.6" />
        <path fill="none" stroke="#c9c9c9" stroke-width="2" stroke-linecap="round" stroke-linejoin="round" stroke-miterlimit="10" d="M1466.2,428.2c5.1,5.2,9.4,11.6,15.4,15.3c5.8,3.5,5.7,7.4,5.4,12.8c-0.4,8.9-0.1,17.8-0.1,26.7" />
        <path fill="none" stroke="#c9c9c9" stroke-width="2" stroke-linecap="round" stroke-linejoin="round" stroke-miterlimit="10" d="M1487.3,424.5c9.2,0.4,18.4,0.6,27.6-0.1c4.4-0.3,9.2,0.7,13.8,0.5c13.2-0.6,26.4-0.2,39.6-0.4c1.2,0,2.5-0.3,3.7-0.4" />
        <path fill="none" stroke="#c9c9c9" stroke-width="2" stroke-linecap="round" stroke-linejoin="round" stroke-miterlimit="10" d="M1530.6,450.7c1.9,3.8,0.2,7.7,0.4,11.5c0.3,6.9,0.1,13.8,0.1,20.7" />
        <path fill="none" stroke="#c9c9c9" stroke-width="2" stroke-linecap="round" stroke-linejoin="round" stroke-miterlimit="10" d="M1366.4,47.3c2.5,3.3,2.7,7.3,2.6,11c-0.1,7,1.6,14.2-2.6,20.7c-2.4,20.2-16.7,31.6-31.8,42.3c-1.5,1-3.4,0.9-5.1,1.5c-11,3.8-22.4,6.3-34,3.9c-13.8-2.9-26.4-8.2-36.1-19.5c-5.9-6.8-11-13.8-13.7-22.3c-3.2-10-5.1-20.3-3-30.8c2.6-12.5,7-24.2,16.4-33.7c7.2-7.3,15.2-13.2,24.9-16.5c10.3-3.4,21.1-5.5,31.7-3.1c11.9,2.7,23.3,6.6,32.5,16.1c6,6.2,11.2,12.3,15,20c1.6,3.2,2.2,6.4,2.6,9.7"
        />
        <path fill="none" stroke="#c9c9c9" stroke-width="2" stroke-linecap="round" stroke-linejoin="round" stroke-miterlimit="10" d="M1571.1,229c-8.7,0-17.5,0-26.2,0c-1.7,0-3.4-0.3-5.1-0.4" />
        <path fill="none" stroke="#c9c9c9" stroke-width="2" stroke-linecap="round" stroke-linejoin="round" stroke-miterlimit="10" d="M1402.2,468.7c-9.4,0-18.7,0.2-28.1-0.1c-2-0.1-3.7,0.1-5.5,0.6" />
        <path fill="none" stroke="#c9c9c9" stroke-width="2" stroke-linecap="round" stroke-linejoin="round" stroke-miterlimit="10" d="M1273,270.4c-8.8-1-16.8-5.4-25.8-6c-0.3,0-0.6-0.6-0.9-0.9" />
        <path fill="none" stroke="#c9c9c9" stroke-width="2" stroke-linecap="round" stroke-linejoin="round" stroke-miterlimit="10" d="M1326.8,86.9c7.4,7.4,14.7,14.7,22.1,22.1" />
        <path fill="none" stroke="#c9c9c9" stroke-width="2" stroke-linecap="round" stroke-linejoin="round" stroke-miterlimit="10" d="M1280.8,85c-7.1,6.9-14.1,13.8-21.2,20.7" />
        <path fill="none" stroke="#c9c9c9" stroke-width="2" stroke-linecap="round" stroke-linejoin="round" stroke-miterlimit="10" d="M1347.5,17.9c-6.9,7.1-13.8,14.1-20.7,21.2" />
        <path fill="none" stroke="#c9c9c9" stroke-width="2" stroke-linecap="round" stroke-linejoin="round" stroke-miterlimit="10" d="M1283.6,85c6.7,6.7,13.5,13.5,20.2,20.2" />
        <path fill="none" stroke="#c9c9c9" stroke-width="2" stroke-linecap="round" stroke-linejoin="round" stroke-miterlimit="10" d="M1303.8,20.6c-6.7,6.7-13.5,13.5-20.2,20.2" />
        <path fill="none" stroke="#c9c9c9" stroke-width="2" stroke-linecap="round" stroke-linejoin="round" stroke-miterlimit="10" d="M1260.6,20.6c6.7,6.7,13.5,13.5,20.2,20.2" />
        <path fill="none" stroke="#c9c9c9" stroke-width="2" stroke-linecap="round" stroke-linejoin="round" stroke-miterlimit="10" d="M1303.8,63.9c6.7,6.7,13.5,13.5,20.2,20.2" />
        <path fill="none" stroke="#c9c9c9" stroke-width="2" stroke-linecap="round" stroke-linejoin="round" stroke-miterlimit="10" d="M1326.8,41.8c6.7,6.7,13.5,13.5,20.2,20.2" />
        <path fill="none" stroke="#c9c9c9" stroke-width="2" stroke-linecap="round" stroke-linejoin="round" stroke-miterlimit="10" d="M1324,41.8c-6.7,6.7-13.5,13.5-20.2,20.2" />
        <path fill="none" stroke="#c9c9c9" stroke-width="2" stroke-linecap="round" stroke-linejoin="round" stroke-miterlimit="10" d="M1347,63.9c-6.7,6.7-13.5,13.5-20.2,20.2" />
        <path fill="none" stroke="#c9c9c9" stroke-width="2" stroke-linecap="round" stroke-linejoin="round" stroke-miterlimit="10" d="M1324,86.9c-6.1,6.1-12.3,12.3-18.4,18.4" />
        <path fill="none" stroke="#c9c9c9" stroke-width="2" stroke-linecap="round" stroke-linejoin="round" stroke-miterlimit="10" d="M1302,63.9c-6.1,6.1-12.3,12.3-18.4,18.4" />
        <path fill="none" stroke="#c9c9c9" stroke-width="2" stroke-linecap="round" stroke-linejoin="round" stroke-miterlimit="10" d="M1262.4,63.9c6.1,6.1,12.3,12.3,18.4,18.4" />
        <path fill="none" stroke="#c9c9c9" stroke-width="2" stroke-linecap="round" stroke-linejoin="round" stroke-miterlimit="10" d="M1280.8,43.6c-6.1,6.1-12.3,12.3-18.4,18.4" />
        <path fill="none" stroke="#c9c9c9" stroke-width="2" stroke-linecap="round" stroke-linejoin="round" stroke-miterlimit="10" d="M1283.6,43.6c6.1,6.1,12.3,12.3,18.4,18.4" />
        <path fill="none" stroke="#c9c9c9" stroke-width="2" stroke-linecap="round" stroke-linejoin="round" stroke-miterlimit="10" d="M1305.6,20.6c6.1,6.1,12.3,12.3,18.4,18.4" />
        <path fill="none" stroke="#c9c9c9" stroke-width="2" stroke-linecap="round" stroke-linejoin="round" stroke-miterlimit="10" d="M1305.6,107.1c4.1,4.1,8.3,8.3,12.4,12.4c1.4,1.4,2.9,2.8,2.8,5.1" />
        <path fill="none" stroke="#c9c9c9" stroke-width="2" stroke-linecap="round" stroke-linejoin="round" stroke-miterlimit="10" d="M1303.8,107.1c-4,4-8,8-12,12c-1.4,1.4-3.1,2.7-3.2,5.1" />
        <path fill="none" stroke="#c9c9c9" stroke-width="2" stroke-linecap="round" stroke-linejoin="round" stroke-miterlimit="10" d="M1348.9,63.9c4,4,8,8,12,12c1.4,1.4,2.7,3.1,5.1,3.2" />
        <path fill="none" stroke="#c9c9c9" stroke-width="2" stroke-linecap="round" stroke-linejoin="round" stroke-miterlimit="10" d="M1365.4,46.9c-4.8,1.9-7.3,6.5-11,9.7c-2,1.7-3.7,3.7-5.5,5.5" />
        <path fill="none" stroke="#c9c9c9" stroke-width="2" stroke-linecap="round" stroke-linejoin="round" stroke-miterlimit="10" d="M1245.4,48.7c3,0.3,4.5,2.8,6.4,4.6c3,2.8,5.8,5.8,8.8,8.7" />
        <path fill="none" stroke="#c9c9c9" stroke-width="2" stroke-linecap="round" stroke-linejoin="round" stroke-miterlimit="10" d="M1260.6,63.9c-5.2,4.7-9.3,10.4-15.2,14.3" />
        <path fill="none" stroke="#c9c9c9" stroke-width="2" stroke-linecap="round" stroke-linejoin="round" stroke-miterlimit="10" d="M1319.9,3.6c-3.9,5.9-9.6,10-14.3,15.2" />
        <path fill="none" stroke="#c9c9c9" stroke-width="2" stroke-linecap="round" stroke-linejoin="round" stroke-miterlimit="10" d="M1290.5,3.6c0.3,3,2.8,4.5,4.6,6.4c2.8,3,5.8,5.8,8.7,8.8" />
        <path fill="none" stroke="#c9c9c9" stroke-width="2" stroke-linecap="round" stroke-linejoin="round" stroke-miterlimit="10" d="M1064.1,2.2c-0.5,2.1-0.8,4.2-0.6,6.5c0.4,5.2,0.8,10.5-0.8,15.6" />
        <path fill="none" stroke="#c9c9c9" stroke-width="2" stroke-linecap="round" stroke-linejoin="round" stroke-miterlimit="10" d="M1438.6,318.2c-3.5,0.2-7.1,0.3-10.6,0.5" />
        <path fill="none" stroke="#c9c9c9" stroke-width="2" stroke-linecap="round" stroke-linejoin="round" stroke-miterlimit="10" d="M1292.1,305.4c0,0.7,0,3.8,0,6.9c0,19.8,0,39.6,0,59.3c0,1.4,0,2.8,0,4.1c0,2.5,0,4.2,0,4.2c0,0,0-1.1,0-3.7c0-1.4,0-2.8,0-4.2c0-18.4,0-36.8,0-55.2c0-2.3,0-4.5,0-6.9C1292.1,306.7,1292.1,305.3,1292.1,305.4"
        />
    </g>
</svg>